<?xml version="1.0" encoding="utf-8"?>
<!-- Generator: Adobe Illustrator 21.0.0, SVG Export Plug-In . SVG Version: 6.00 Build 0)  -->
<svg version="1.1" id="Layer_1" xmlns="http://www.w3.org/2000/svg" xmlns:xlink="http://www.w3.org/1999/xlink" x="0px" y="0px"
	 viewBox="0 0 84.9 31.4" style="enable-background:new 0 0 84.9 31.4;" xml:space="preserve">
<style type="text/css">
	.st0{fill:#1E90FF;}
	.st1{enable-background:new    ;}
</style>
<g>
	<g>
		<path class="st0" d="M21.5,0.2c0.5-0.4,1.2-0.3,1.6,0.1c0.3,0.2,0.3,0.6,0.3,0.9c0,1.3,0,2.6,0,3.9c0.3,0.3,0.7,0.6,1,1
			c4.4,4.4,8.9,8.7,13.3,13c0.2,0.2,0.4,0.4,0.6,0.3c1,0,2,0,3,0c-0.5-0.4-1-0.9-1.3-1.6c-0.6-1.3-0.4-2.9,0.6-4c1-1.1,2.6-1.6,4-1
			c1.7,0.6,2.8,2.6,2.3,4.3c-0.2,0.9-0.8,1.6-1.5,2.2c0.6,0,1.3,0,1.9,0c0.4,0.1,0.8,0.5,0.8,0.9c0.2,0.7-0.4,1.5-1.1,1.4
			c-3.2,0-6.4,0-9.6,0c-0.5,0-0.8-0.3-1.1-0.6c-2.4-2.4-4.8-4.7-7.1-7c-2-1.9-4-3.8-5.9-5.8c0,2.1,0,4.3,0,6.4c0.7,0,1.3,0,2,0
			c0,3.8,0,7.7,0,11.5c-1.6,0-3.2,0-4.7,0c0,1-0.5,2.1-1.3,2.8c-1.3,1.2-3.6,1.2-4.9,0c-0.8-0.7-1.2-1.7-1.3-2.8
			c-4.4,0-8.8,0-13.3,0V14.9c1,0,2.1,0,3.1,0C3.6,15,4,14.6,4.4,14.3C10,10.9,15.5,7.5,21.1,4.1c0-1,0-1.9,0-2.9
			C21.1,0.8,21.2,0.5,21.5,0.2z M8,14.9c4.3,0,8.7,0,13,0c0-2.7,0-5.3,0-8C16.7,9.5,12.4,12.3,8,14.9z M41.3,16.4
			c-0.1,0.9,0.6,1.8,1.5,2.1c0.4,0.1,0.9,0.1,1.3,0c0.7-0.2,1.2-0.8,1.4-1.5c0.1-0.5,0.1-1.1-0.2-1.5c-0.4-0.8-1.2-1.2-2.1-1.1
			C42.2,14.4,41.3,15.3,41.3,16.4z M16.5,24.4c-0.4,0.2-0.7,0.3-1,0.6c-0.5,0.5-0.7,1.4-0.5,2.1c0.3,0.8,1.1,1.5,2,1.5
			c0.7,0,1.3-0.3,1.7-0.9c0.5-0.6,0.5-1.5,0.2-2.2C18.5,24.6,17.4,24.1,16.5,24.4z"/>
	</g>
	<g>
		<path class="st0" d="M57.5,4.3c0.3,0,0.6,0.1,0.8,0.2c2.5,0.8,5.1,1.6,7.6,2.4c1.1,0.2,2.2,0.7,3.3,1c2.8,1,5.5,1.9,8.3,2.9
			c0.1,0,0.3,0.1,0.4,0.1c1.2,3.3,2.2,6.7,3.4,10.1c0.3,0.6,0.5,1.3,0.3,1.9c-0.2,0.5-0.5,1-0.8,1.4c-0.9,0.8-1.9,1.7-2.8,2.5
			c-0.7,0-1.4-0.1-2.1-0.1c0,0-0.1-0.1-0.1-0.1c-0.2-1.1-0.6-2.3-1.4-3.1c-0.7-0.8-1.9-1.2-2.9-0.9c-1,0.2-1.9,0.8-2.6,1.6
			c-2-0.7-4-1.4-5.9-2c-0.3-0.1-0.6-0.3-1-0.4c-2.7-1-5.4-2-8.1-2.9c-1-0.4-1.9-0.7-2.9-1.1c-0.9-0.3-1.7-0.6-2.6-0.9
			c-0.2-0.1-0.3-0.1-0.4-0.2c-0.4-1.4-1.2-2.7-2.5-3.4c-1.1-0.6-2.5-0.6-3.7-0.1c-0.5,0.2-1,0.5-1.5,0.8c-1.1-0.7-2-1.6-3.1-2.4
			c-0.1-0.1-0.3-0.2-0.3-0.4c-0.1-0.5,0-0.9,0-1.4c0.3-1.2,1-2.4,2-3.1C39.2,6.2,39.7,6,40.1,6c2.6,0.4,5.1,0.8,7.7,1.2
			c1,0.2,2-0.2,2.9-0.4c1.8-0.5,3.5-1.2,5.3-1.9C56.5,4.8,57,4.6,57.5,4.3z M57.2,5.9c-0.1,0.1-0.2,0.3-0.4,0.4
			c-1.1,0.6-2.1,1.1-3.2,1.7c-0.5,0.3-1.1,0.4-1.5,0.8c0,0.2-0.1,0.5,0.1,0.6c0.4,0.5,1,0.8,1.5,1.2c0.9,0.3,1.8,0.6,2.6,1
			c1.3,0.5,2.6,0.9,3.8,1.4c0.2,0.1,0.4,0.2,0.7,0.2c0.8,0.3,1.7,0.6,2.5,0.9c3.2,1.1,6.4,2.3,9.6,3.5c0.5,0.2,1.1,0.3,1.6,0.2
			c0.2,0,0.4-0.2,0.4-0.4c0.1-0.4,0-0.9,0-1.3c0-0.6-0.1-1.2-0.1-1.9c0-0.9-0.1-1.7-0.1-2.6c-0.1,0-0.3-0.1-0.4-0.1
			c-4.4-1.5-8.8-2.9-13.2-4.4C60.8,7,60.6,7,60.3,6.9c-0.9-0.3-1.8-0.6-2.6-0.9c0-0.1-0.1-0.2-0.1-0.2C57.5,5.9,57.3,5.9,57.2,5.9z"
			/>
	</g>
	<g>
		<path class="st0" d="M71.1,23.2c1.2-0.2,2.5,0.3,3.4,1.3c1,1.1,1.2,2.8,0.5,4.1c-0.6,1.2-1.9,2-3.2,1.9c-0.9,0.1-1.9-0.3-2.6-0.9
			c-1.3-1.1-1.6-3.3-0.7-4.7C69.1,24,70.1,23.4,71.1,23.2z M71.3,24.8c-0.8,0.1-1.5,0.8-1.7,1.6c-0.3,1,0.3,2.1,1.2,2.5
			c0.5,0.2,1,0.2,1.5,0.1c0.8-0.3,1.5-1.1,1.5-2c0.1-0.8-0.5-1.6-1.2-2C72.2,24.8,71.8,24.7,71.3,24.8z"/>
	</g>
	<path class="st0" d="M0,30.6c22.3,0,44.7,0,67,0c1.6,0,3.2,0,4.8,0c1,0.1,2,0,3,0c3.4,0,6.7,0,10.1,0v0.8c-28.3,0-56.6,0-84.9,0
		L0,30.6L0,30.6z"/>
</g>
<text transform="matrix(1 0 0 1 -7.128 74.0937)" style="font-family:'HelveticaNeue-Bold'; font-size:5px;">Created by Bernar  Novalyi</text>
<text transform="matrix(1 0 0 1 -7.128 79.0937)" style="font-family:'HelveticaNeue-Bold'; font-size:5px;">from the Noun Project</text>
</svg>
