<?xml version="1.0" encoding="utf-8"?>
<!-- Generator: Adobe Illustrator 21.0.0, SVG Export Plug-In . SVG Version: 6.00 Build 0)  -->
<svg version="1.1" id="Layer_1" xmlns="http://www.w3.org/2000/svg" xmlns:xlink="http://www.w3.org/1999/xlink" x="0px" y="0px"
	 viewBox="0 0 95.5 89.2" style="enable-background:new 0 0 95.5 89.2;" xml:space="preserve">
<style type="text/css">
	.st0{fill:#1E90FF;}
	.st1{enable-background:new    ;}
</style>
<g>
	<path class="st0" d="M58.1,69.4l-12.9-6.5c-0.6-0.3-1-0.9-1-1.5v-3.9c0.2-0.3,0.4-0.6,0.6-0.9c1.6-2.3,3-4.9,4-7.6
		c2.1-1.3,3.5-3.6,3.5-6.2v-5.4c0-1.5-0.5-3-1.4-4.2V30c0.1-1.2,0.3-6.1-3.3-10.2c-3.1-3.6-8.1-5.4-14.8-5.4S21.2,16.2,18,19.8
		c-3.6,4.1-3.4,9.1-3.3,10.1v3.3c-0.9,1.2-1.4,2.7-1.4,4.2v5.4c0,2,0.8,3.9,2.2,5.2c1.2,4.4,3.3,7.7,4.5,9.4v3.9
		c0,0.6-0.3,1.2-0.9,1.5L7.3,69.3C2.8,71.8,0,76.5,0,81.6v5.6c0,1.1,0.9,2,2,2h61.9c1.1,0,2-0.9,2-2v-5.3
		C65.8,76.6,62.8,71.8,58.1,69.4z"/>
	<path class="st0" d="M86.5,0H64.1c-5,0-9,4-9,9v28c0,0.8,0.5,1.5,1.2,1.8c0.3,0.1,0.5,0.2,0.8,0.2c0.5,0,1-0.2,1.4-0.5l7.8-7.3
		h20.2c5,0,9-4,9-9V9C95.5,4,91.4,0,86.5,0z M65.7,9.3h6.7c1.1,0,2,0.9,2,2s-0.9,2-2,2h-6.7c-1.1,0-2-0.9-2-2S64.6,9.3,65.7,9.3z
		 M82.3,21.3H65.7c-1.1,0-2-0.9-2-2s0.9-2,2-2h16.7c1.1,0,2,0.9,2,2S83.5,21.3,82.3,21.3z"/>
</g>
<text transform="matrix(1 0 0 1 -2.3 109.6)" style="font-family:'HelveticaNeue-Bold'; font-size:5px;">Created by Lakshisha</text>
<text transform="matrix(1 0 0 1 -2.3 114.6)" style="font-family:'HelveticaNeue-Bold'; font-size:5px;">from the Noun Project</text>
</svg>
