<?xml version="1.0" encoding="utf-8"?>
<!-- Generator: Adobe Illustrator 21.0.0, SVG Export Plug-In . SVG Version: 6.00 Build 0)  -->
<svg version="1.1" id="Layer_1" xmlns="http://www.w3.org/2000/svg" xmlns:xlink="http://www.w3.org/1999/xlink" x="0px" y="0px"
	 viewBox="0 0 34 84.3" style="enable-background:new 0 0 34 84.3;" xml:space="preserve">
<style type="text/css">
	.st0{fill:#1E90FF;}
	.st1{enable-background:new    ;}
</style>
<path class="st0" d="M19,82.7V36h-3v46.6c-2,0.1-3.4,0.4-3.4,0.8c0,0.5,2.4,0.9,4.9,0.9s4.9-0.4,4.9-0.9
	C22.4,83.1,20.6,82.8,19,82.7z"/>
<g>
	<path class="st0" d="M2.8,34C1.2,34,0,32.8,0,31.2V2.8C0,1.2,1.2,0,2.8,0h28.5C32.8,0,34,1.2,34,2.8v28.5c0,1.5-1.2,2.8-2.8,2.8"/>
</g>
<text transform="matrix(1 0 0 1 -31 106)" style="font-family:'HelveticaNeue-Bold'; font-size:5px;">Created by Yaroslav Samoilov</text>
<text transform="matrix(1 0 0 1 -31 111)" style="font-family:'HelveticaNeue-Bold'; font-size:5px;">from the Noun Project</text>
</svg>
